<mxfile host="app.diagrams.net" modified="2024-05-13T07:42:54.856Z" agent="Mozilla/5.0 (Macintosh; Intel Mac OS X 10_15_7) AppleWebKit/537.36 (KHTML, like Gecko) Chrome/124.0.0.0 Safari/537.36" version="24.4.0" etag="KHz3Hj5IawtO6aDLHU3c" type="github">
  <diagram name="第 1 页" id="se2q9vOucDfvk4_Nzbp1">
    <mxGraphModel>
      <root>
        <mxCell id="0" />
        <mxCell id="1" parent="0" />
      </root>
    </mxGraphModel>
  </diagram>
</mxfile>
